<svg width="6" height="9" viewBox="0 0 6 9" fill="none" xmlns="http://www.w3.org/2000/svg">
<path d="M1.35533 0.947934L1.07689 1.27941L1.26832 1.7248L1.07672 1.88539L1.07689 1.8856L3.48321 4.75661L1.07689 7.62762L1.26832 7.78842L1.07672 7.62783L1.0768 7.62773C0.932702 7.79939 0.932734 8.06219 1.07689 8.23381L1.35533 8.56529C1.43247 8.65712 1.54405 8.7135 1.66629 8.7135C1.78853 8.7135 1.90011 8.65712 1.97725 8.56529L4.92193 5.05971C5.06612 4.88805 5.06612 4.62517 4.92193 4.45351L1.97725 0.947934C1.90011 0.856103 1.78853 0.79972 1.66629 0.79972C1.54405 0.79972 1.43247 0.856103 1.35533 0.947934Z" fill="#0161A5" stroke="#0161A5" stroke-width="0.5"/>
</svg>
