<svg width="14" height="10" viewBox="0 0 14 10" fill="none" xmlns="http://www.w3.org/2000/svg">
<path d="M4.76515 9.38382L5.37847 8.77051C5.527 8.62198 5.52456 8.38039 5.37306 8.23489L2.85062 5.81245L13.625 5.81245C13.8321 5.81245 14 5.64454 14 5.43745L14 4.56245C14 4.35535 13.8321 4.18745 13.625 4.18745L2.85062 4.18745L5.37303 1.76501C5.52456 1.61951 5.527 1.37792 5.37844 1.22939L4.76512 0.616073C4.61869 0.469636 4.38125 0.469636 4.23478 0.616074L0.11606 4.73479C-0.0303778 4.88123 -0.0303778 5.11867 0.11606 5.26514L4.23484 9.38383C4.38128 9.53026 4.61872 9.53026 4.76515 9.38382Z" fill="#1B1B1B"/>
</svg>
