<svg width="12" height="12" viewBox="0 0 12 12" fill="none" xmlns="http://www.w3.org/2000/svg">
<path d="M8.68875 3.12375C7.95605 2.43769 7.00519 2.06161 5.99644 2.0625C4.18102 2.06409 2.61375 3.30886 2.18102 5.03555C2.14952 5.16124 2.03754 5.25 1.90795 5.25H0.564914C0.38918 5.25 0.25568 5.09046 0.288187 4.91775C0.795305 2.22478 3.15968 0.1875 6 0.1875C7.55737 0.1875 8.97166 0.800062 10.0152 1.7973L10.8523 0.960234C11.2066 0.605883 11.8125 0.856852 11.8125 1.35799V4.5C11.8125 4.81066 11.5607 5.0625 11.25 5.0625H8.10799C7.60685 5.0625 7.35588 4.45662 7.71023 4.10224L8.68875 3.12375ZM0.75 6.9375H3.89201C4.39315 6.9375 4.64412 7.54338 4.28977 7.89776L3.31125 8.87627C4.04395 9.56236 4.99488 9.93844 6.00366 9.93752C7.81814 9.93588 9.38604 8.69196 9.81898 6.9645C9.85048 6.8388 9.96246 6.75005 10.092 6.75005H11.4351C11.6108 6.75005 11.7443 6.90959 11.7118 7.0823C11.2047 9.77522 8.84032 11.8125 6 11.8125C4.44263 11.8125 3.02834 11.1999 1.9848 10.2027L1.14773 11.0398C0.793383 11.3941 0.1875 11.1431 0.1875 10.642V7.5C0.1875 7.18934 0.439336 6.9375 0.75 6.9375Z" fill="#1B1B1B"/>
</svg>
