<svg width="20" height="22" viewBox="0 0 20 22" fill="none" xmlns="http://www.w3.org/2000/svg">
<path d="M10 17.7029C9.30804 17.7029 8.75 17.1658 8.75 16.4998V13.7498C8.75 13.0838 9.30804 12.5466 10 12.5466C10.692 12.5466 11.25 13.0838 11.25 13.7498V16.4998C11.25 17.1658 10.692 17.7029 10 17.7029ZM20 10.3123V19.9373C20 21.0759 19.0402 21.9998 17.8571 21.9998H2.14286C0.959821 21.9998 0 21.0759 0 19.9373V10.3123C0 9.1736 0.959821 8.24977 2.14286 8.24977H3.57143V6.18727C3.57143 2.77126 6.46429 -0.00881802 10.0179 -0.00022427C13.5714 0.00836948 16.4286 2.82712 16.4286 6.24743V8.24977H17.8571C19.0402 8.24977 20 9.1736 20 10.3123ZM5.71429 8.24977H14.2857V6.18727C14.2857 3.91423 12.3616 2.06228 10 2.06228C7.63839 2.06228 5.71429 3.91423 5.71429 6.18727V8.24977ZM17.8571 10.3123H2.14286V19.9373H17.8571V10.3123Z" fill="white"/>
</svg>
