<svg width="22" height="24" viewBox="0 0 22 24" fill="none" xmlns="http://www.w3.org/2000/svg">
<path d="M11 19.3123C10.2388 19.3123 9.625 18.7263 9.625 17.9998V14.9998C9.625 14.2732 10.2388 13.6873 11 13.6873C11.7612 13.6873 12.375 14.2732 12.375 14.9998V17.9998C12.375 18.7263 11.7612 19.3123 11 19.3123ZM22 11.2498V21.7498C22 22.992 20.9442 23.9998 19.6429 23.9998H2.35714C1.0558 23.9998 0 22.992 0 21.7498V11.2498C0 10.0076 1.0558 8.99978 2.35714 8.99978H3.92857V6.74978C3.92857 3.02321 7.11071 -0.00959746 11.0196 -0.000222464C14.9286 0.00915254 18.0714 3.08415 18.0714 6.8154V8.99978H19.6429C20.9442 8.99978 22 10.0076 22 11.2498ZM6.28571 8.99978H15.7143V6.74978C15.7143 4.27009 13.5978 2.24978 11 2.24978C8.40223 2.24978 6.28571 4.27009 6.28571 6.74978V8.99978ZM19.6429 11.2498H2.35714V21.7498H19.6429V11.2498Z" fill="#1B1B1B"/>
</svg>
