<svg width="92" height="22" viewBox="0 0 92 22" fill="none" xmlns="http://www.w3.org/2000/svg">
<path d="M34.4004 4.92008H29.3093C29.1408 4.91998 28.9777 4.97882 28.8496 5.08602C28.7214 5.19321 28.6366 5.34171 28.6103 5.50475L26.5512 18.2893C26.5418 18.3487 26.5455 18.4093 26.5623 18.4671C26.5791 18.5248 26.6084 18.5783 26.6483 18.6239C26.6882 18.6695 26.7377 18.7061 26.7934 18.7311C26.8492 18.7562 26.9098 18.7691 26.9711 18.769H29.4016C29.5703 18.7691 29.7334 18.7102 29.8616 18.6028C29.9898 18.4955 30.0745 18.3468 30.1006 18.1836L30.656 14.7354C30.6821 14.5724 30.7667 14.4238 30.8948 14.3165C31.0228 14.2092 31.1857 14.1501 31.3542 14.15H32.9659C36.3195 14.15 38.255 12.5608 38.7605 9.4115C38.9883 8.03367 38.7702 6.9511 38.1114 6.19293C37.3878 5.3604 36.1044 4.92008 34.4004 4.92008ZM34.9878 9.58937C34.7094 11.3784 33.3136 11.3784 31.9639 11.3784H31.1957L31.7346 8.03732C31.7504 7.93957 31.8013 7.85055 31.8781 7.78627C31.955 7.72199 32.0527 7.68667 32.1538 7.68666H32.5059C33.4252 7.68666 34.2925 7.68666 34.7406 8.19989C35.0079 8.50607 35.0898 8.96097 34.9878 9.58937ZM49.6186 9.53178H47.1807C47.0796 9.53179 46.9819 9.5671 46.905 9.63138C46.8282 9.69567 46.7773 9.78469 46.7616 9.88244L46.6536 10.5502L46.4831 10.3082C45.9553 9.55803 44.7784 9.30725 43.6037 9.30725C40.9096 9.30725 38.6086 11.3055 38.1605 14.1085C37.9275 15.5067 38.2588 16.8437 39.0687 17.7761C39.8116 18.6334 40.8747 18.9907 42.1394 18.9907C44.3102 18.9907 45.5139 17.6238 45.5139 17.6238L45.4052 18.2872C45.3955 18.3465 45.3991 18.4071 45.4156 18.465C45.4322 18.5228 45.4614 18.5764 45.5011 18.6222C45.5409 18.6679 45.5903 18.7047 45.646 18.7299C45.7017 18.7551 45.7622 18.7682 45.8236 18.7683H48.0196C48.1883 18.7684 48.3514 18.7094 48.4796 18.6021C48.6078 18.4948 48.6925 18.3461 48.7186 18.1829L50.0363 10.0115C50.046 9.95229 50.0424 9.89175 50.0259 9.83404C50.0094 9.77633 49.9802 9.72282 49.9405 9.67721C49.9008 9.6316 49.8515 9.59498 49.7959 9.56987C49.7403 9.54476 49.6798 9.53176 49.6186 9.53178ZM46.2204 14.1785C45.9851 15.5424 44.8797 16.4581 43.4697 16.4581C42.7618 16.4581 42.196 16.2357 41.8327 15.8144C41.4724 15.3959 41.3355 14.8003 41.4501 14.1369C41.6697 12.7846 42.7938 11.8391 44.1821 11.8391C44.8744 11.8391 45.4372 12.0644 45.8079 12.4894C46.1794 12.9188 46.3268 13.518 46.2204 14.1785ZM62.6028 9.53178H60.153C60.0374 9.53196 59.9237 9.55974 59.8216 9.61272C59.7195 9.66569 59.6321 9.74226 59.5671 9.83578L56.1882 14.7099L54.7559 10.026C54.7119 9.88319 54.6222 9.75799 54.4999 9.66897C54.3776 9.57996 54.2293 9.53186 54.077 9.53178H51.6695C51.6019 9.53161 51.5353 9.54724 51.4751 9.57738C51.415 9.60752 51.363 9.6513 51.3236 9.70507C51.2842 9.75884 51.2585 9.82105 51.2486 9.88652C51.2388 9.95198 51.245 10.0188 51.2668 10.0815L53.9653 17.8366L51.4283 21.3439C51.3832 21.4061 51.3565 21.4792 51.351 21.5553C51.3456 21.6314 51.3616 21.7074 51.3973 21.7752C51.4331 21.843 51.4872 21.8998 51.5537 21.9394C51.6202 21.9791 51.6966 22 51.7745 22H54.2214C54.3356 22.0002 54.4482 21.9732 54.5495 21.9214C54.6507 21.8696 54.7377 21.7945 54.8028 21.7026L62.9512 10.1842C62.9954 10.1219 63.0213 10.049 63.0261 9.97325C63.031 9.89755 63.0146 9.82199 62.9787 9.75477C62.9428 9.68755 62.8888 9.63123 62.8225 9.59193C62.7563 9.55262 62.6803 9.53182 62.6028 9.53178Z" fill="#253B80"/>
<path d="M70.7141 4.92008H65.6222C65.4538 4.92015 65.2909 4.97907 65.1629 5.08625C65.0349 5.19343 64.9502 5.34183 64.924 5.50474L62.8649 18.2894C62.8553 18.3486 62.859 18.4091 62.8756 18.4668C62.8922 18.5246 62.9214 18.578 62.9612 18.6236C63.0009 18.6692 63.0503 18.7058 63.1059 18.7309C63.1615 18.7561 63.222 18.7691 63.2833 18.7691H65.8962C66.014 18.7689 66.128 18.7275 66.2175 18.6524C66.307 18.5773 66.3662 18.4734 66.3845 18.3593L66.9689 14.7354C66.9949 14.5724 67.0796 14.4238 67.2076 14.3165C67.3357 14.2092 67.4986 14.1502 67.6671 14.1501H69.2781C72.6324 14.1501 74.5672 12.5608 75.0734 9.4115C75.3019 8.03367 75.0823 6.9511 74.4235 6.19293C73.7007 5.3604 72.418 4.92008 70.7141 4.92008ZM71.3014 9.58938C71.0237 11.3784 69.6279 11.3784 68.2776 11.3784H67.5101L68.0498 8.03732C68.0652 7.93957 68.1159 7.85047 68.1927 7.78615C68.2694 7.72183 68.3671 7.68654 68.4681 7.68667H68.8203C69.7389 7.68667 70.6069 7.68667 71.055 8.19989C71.3222 8.50607 71.4034 8.96097 71.3014 9.58938ZM85.9315 9.53179H83.495C83.394 9.53151 83.2962 9.56675 83.2194 9.6311C83.1426 9.69544 83.092 9.78463 83.0766 9.88244L82.9687 10.5502L82.7975 10.3082C82.2697 9.55803 81.0935 9.30725 79.9188 9.30725C77.2248 9.30725 74.9245 11.3055 74.4763 14.1085C74.2441 15.5067 74.5739 16.8437 75.3838 17.7761C76.1282 18.6335 77.1898 18.9907 78.4545 18.9907C80.6253 18.9907 81.829 17.6238 81.829 17.6238L81.7203 18.2872C81.7106 18.3466 81.7142 18.4074 81.7308 18.4653C81.7475 18.5233 81.7768 18.577 81.8167 18.6227C81.8567 18.6685 81.9062 18.7052 81.9621 18.7304C82.0179 18.7555 82.0787 18.7684 82.1402 18.7683H84.3355C84.504 18.7682 84.6669 18.7092 84.7949 18.6019C84.923 18.4945 85.0076 18.346 85.0337 18.1829L86.3521 10.0115C86.3614 9.95211 86.3575 9.89146 86.3407 9.8337C86.3238 9.77595 86.2944 9.72244 86.2545 9.67687C86.2145 9.6313 86.165 9.59473 86.1092 9.56969C86.0535 9.54465 85.9928 9.53172 85.9315 9.53179ZM82.5332 14.1785C82.2995 15.5425 81.1925 16.4581 79.7826 16.4581C79.0761 16.4581 78.5089 16.2357 78.1456 15.8144C77.7853 15.3959 77.6498 14.8003 77.763 14.1369C77.9841 12.7846 79.1066 11.8391 80.495 11.8391C81.1873 11.8391 81.7501 12.0644 82.1208 12.4894C82.4938 12.9188 82.6412 13.518 82.5332 14.1785ZM88.8057 5.27073L86.7161 18.2894C86.7065 18.3486 86.7102 18.4091 86.7268 18.4668C86.7434 18.5246 86.7726 18.578 86.8124 18.6236C86.8521 18.6692 86.9015 18.7058 86.9571 18.7309C87.0127 18.7561 87.0732 18.7691 87.1345 18.7691H89.2352C89.5844 18.7691 89.8806 18.5212 89.9342 18.1837L91.9948 5.39977C92.0044 5.34051 92.0007 5.27992 91.9841 5.22218C91.9675 5.16443 91.9383 5.1109 91.8985 5.06525C91.8588 5.0196 91.8094 4.98292 91.7538 4.95774C91.6982 4.93255 91.6377 4.91946 91.5764 4.91935H89.2241C89.1231 4.9197 89.0255 4.95525 88.9488 5.01964C88.8722 5.08403 88.8214 5.17304 88.8057 5.27073Z" fill="#179BD7"/>
<path d="M5.4089 21.2535L5.79824 18.8318L4.93098 18.8121H0.789764L3.6677 0.941879C3.67627 0.887277 3.70459 0.837509 3.74749 0.801646C3.7904 0.765783 3.84504 0.746213 3.90145 0.746504H10.8841C13.2023 0.746504 14.802 1.2189 15.6373 2.1513C16.0288 2.58871 16.2782 3.0458 16.3988 3.54882C16.5254 4.07662 16.5276 4.70721 16.404 5.47632L16.3951 5.53245V6.02526L16.7866 6.2425C17.0856 6.39081 17.3543 6.59144 17.5795 6.83446C17.9144 7.20844 18.1311 7.68375 18.2226 8.24728C18.3172 8.82684 18.2859 9.51648 18.1311 10.2973C17.9524 11.1954 17.6636 11.9776 17.2735 12.6177C16.9293 13.1911 16.4666 13.6877 15.9149 14.0757C15.3968 14.4358 14.7812 14.7092 14.0851 14.8842C13.4107 15.0562 12.6417 15.143 11.7983 15.143H11.2549C10.8663 15.143 10.4888 15.28 10.1926 15.5257C9.8967 15.774 9.70043 16.1171 9.63871 16.4938L9.59777 16.7118L8.90992 20.9802L8.87865 21.1369C8.87047 21.1865 8.85632 21.2112 8.83548 21.228C8.81529 21.2442 8.7901 21.2532 8.76401 21.2535H5.4089Z" fill="#253B80"/>
<path d="M17.1574 5.58931C17.1365 5.7198 17.1127 5.85321 17.0859 5.99026C16.1651 10.6202 13.0147 12.2196 8.99106 12.2196H6.94241C6.45035 12.2196 6.03571 12.5696 5.95903 13.0449L4.91014 19.5593L4.61312 21.4059C4.60128 21.4791 4.6058 21.554 4.62636 21.6254C4.64691 21.6968 4.68302 21.7629 4.73219 21.8193C4.78136 21.8757 4.84243 21.921 4.91119 21.9521C4.97995 21.9831 5.05476 21.9993 5.13049 21.9993H8.76401C9.19429 21.9993 9.5598 21.6931 9.62754 21.2776L9.66327 21.0968L10.3474 16.8452L10.3913 16.6119C10.4583 16.1949 10.8246 15.8887 11.2548 15.8887H11.7983C15.3186 15.8887 18.0745 14.489 18.88 10.4387C19.2164 8.74664 19.0422 7.33383 18.1519 6.34019C17.8697 6.03281 17.5327 5.77836 17.1574 5.58931Z" fill="#179BD7"/>
<path d="M16.1941 5.21314C15.9 5.12985 15.6009 5.06483 15.2985 5.0185C14.701 4.92857 14.0971 4.88542 13.4926 4.88946H8.01959C7.8113 4.8893 7.60983 4.96212 7.45159 5.09476C7.29336 5.22739 7.18879 5.41109 7.1568 5.61264L5.99253 12.8342L5.95903 13.0449C5.9953 12.815 6.11439 12.6054 6.29477 12.4541C6.47514 12.3027 6.70487 12.2195 6.94241 12.2196H8.99106C13.0147 12.2196 16.1651 10.6202 17.0859 5.99026C17.1127 5.85321 17.1365 5.7198 17.1574 5.58931C16.9144 5.46452 16.6611 5.35991 16.4003 5.27657C16.3319 5.25434 16.2631 5.2332 16.1941 5.21314Z" fill="#222D65"/>
<path d="M7.1568 5.61264C7.18879 5.41109 7.29336 5.22739 7.45159 5.09476C7.60983 4.96212 7.8113 4.8893 8.01959 4.88946H13.4926C14.141 4.88946 14.7462 4.93101 15.2985 5.0185C15.6723 5.07602 16.0402 5.16279 16.4003 5.27657C16.672 5.36478 16.9244 5.46902 17.1574 5.58931C17.4313 3.87832 17.1559 2.71338 16.2112 1.6585C15.1698 0.497185 13.2901 0 10.8849 0H3.9022C3.41088 0 2.99177 0.349925 2.91584 0.825969L0.00737701 18.8799C-0.00617011 18.9637 -0.00101589 19.0494 0.0224851 19.1311C0.0459861 19.2128 0.0872762 19.2885 0.143515 19.3531C0.199754 19.4177 0.269607 19.4695 0.348269 19.5051C0.426931 19.5407 0.512535 19.5592 0.599193 19.5593L4.91014 19.5593L5.99253 12.8342L7.1568 5.61264Z" fill="#253B80"/>
</svg>
