<svg width="13" height="13" viewBox="0 0 13 13" fill="none" xmlns="http://www.w3.org/2000/svg">
<path d="M12.2954 8.37892L9.71598 7.27316C9.48442 7.17468 9.2272 7.15387 8.98282 7.21383C8.73844 7.27379 8.52006 7.4113 8.36038 7.60577L7.5301 8.6214C6.19821 7.89548 5.10351 6.8014 4.37684 5.46991L5.39247 4.63964C5.58693 4.47978 5.72442 4.26127 5.78438 4.01678C5.84434 3.77229 5.82353 3.51496 5.72508 3.28327L4.6211 0.705618C4.51455 0.454765 4.32297 0.249507 4.08004 0.125933C3.83712 0.00235952 3.55841 -0.0316183 3.29292 0.0299737L0.901374 0.581204C0.644762 0.63944 0.415649 0.783369 0.251798 0.989267C0.0879474 1.19516 -0.000862482 1.45074 6.31426e-06 1.71388C6.31426e-06 7.96657 5.07001 13.0025 11.2877 13C11.5508 13.0008 11.8063 12.9119 12.0121 12.748C12.2179 12.5841 12.3617 12.355 12.4198 12.0984L12.9708 9.70608C13.0315 9.44079 12.9972 9.1626 12.8737 8.92004C12.7503 8.67749 12.5456 8.48597 12.2954 8.37892ZM11.2394 11.7835C5.71493 11.7582 1.24415 7.28712 1.21876 1.75958L3.52143 1.22892L4.59012 3.72279L2.86128 5.1373C4.03915 7.65097 5.35438 8.96189 7.86323 10.1392L9.27723 8.40989L11.7703 9.47909L11.2394 11.7835Z" fill="#818181"/>
</svg>
