<svg width="20" height="20" viewBox="0 0 20 20" fill="none" xmlns="http://www.w3.org/2000/svg">
<path d="M12.6429 13.8457C12.7634 13.9617 12.7634 14.1379 12.6429 14.241C11.5491 15.2938 8.45536 15.298 7.35714 14.241C7.23661 14.1379 7.23661 13.9617 7.35714 13.8457C7.46429 13.7426 7.64732 13.7426 7.75446 13.8457C8.58929 14.6707 11.3705 14.6879 12.2411 13.8457C12.3482 13.7469 12.5357 13.7469 12.6429 13.8457ZM8.56696 11.534C8.56696 10.8938 8.03571 10.3824 7.38393 10.3824C6.71875 10.3824 6.1875 10.8938 6.1875 11.534C6.1875 12.1613 6.71875 12.6727 7.38393 12.6727C8.03571 12.6727 8.56696 12.1613 8.56696 11.534ZM12.6161 10.3824C11.9643 10.3824 11.433 10.8938 11.433 11.534C11.433 12.1613 11.9643 12.6727 12.6161 12.6727C13.2813 12.6727 13.8125 12.1613 13.8125 11.534C13.8125 10.8938 13.2813 10.3824 12.6161 10.3824ZM20 2.4375V17.5625C20 18.7012 19.0402 19.625 17.8571 19.625H2.14286C0.959821 19.625 0 18.7012 0 17.5625V2.4375C0 1.29883 0.959821 0.375 2.14286 0.375H17.8571C19.0402 0.375 20 1.29883 20 2.4375ZM15.5491 8.47891C15.0982 8.47891 14.7009 8.65938 14.4063 8.93867C13.3304 8.22109 11.8839 7.76133 10.2768 7.70977L11.1116 4.0918L13.7679 4.66758C13.7679 5.29492 14.2991 5.80625 14.9509 5.80625C15.6161 5.80625 16.1473 5.28203 16.1473 4.65469C16.1473 4.02734 15.6161 3.50313 14.9509 3.50313C14.4866 3.50313 14.0893 3.76953 13.8884 4.14336L10.9554 3.51602C10.808 3.47734 10.6652 3.58047 10.625 3.72227L9.70982 7.70977C8.11607 7.77422 6.68304 8.23398 5.60714 8.95156C5.31696 8.65938 4.90179 8.47891 4.45089 8.47891C2.77679 8.47891 2.22768 10.6445 3.75893 11.3793C3.70536 11.6113 3.67857 11.852 3.67857 12.0969C3.67857 14.5246 6.52232 16.4926 10.0134 16.4926C13.5179 16.4926 16.3616 14.5246 16.3616 12.0969C16.3616 11.852 16.3348 11.5984 16.2679 11.3664C17.7679 10.6273 17.2143 8.47891 15.5491 8.47891Z" fill="#0161A5"/>
</svg>
