<svg width="20" height="20" viewBox="0 0 20 20" fill="none" xmlns="http://www.w3.org/2000/svg">
<path d="M17.8571 0.375H2.14286C1.57454 0.375 1.02949 0.592299 0.627628 0.979092C0.225765 1.36589 0 1.89049 0 2.4375L0 17.5625C0 18.1095 0.225765 18.6341 0.627628 19.0209C1.02949 19.4077 1.57454 19.625 2.14286 19.625H8.27009V13.0804H5.45759V10H8.27009V7.65219C8.27009 4.98168 9.92188 3.50656 12.4518 3.50656C13.6634 3.50656 14.9304 3.71453 14.9304 3.71453V6.33563H13.5344C12.1589 6.33563 11.7299 7.15719 11.7299 7.9998V10H14.8004L14.3094 13.0804H11.7299V19.625H17.8571C18.4255 19.625 18.9705 19.4077 19.3724 19.0209C19.7742 18.6341 20 18.1095 20 17.5625V2.4375C20 1.89049 19.7742 1.36589 19.3724 0.979092C18.9705 0.592299 18.4255 0.375 17.8571 0.375Z" fill="#0161A5"/>
</svg>
