<svg width="20" height="20" viewBox="0 0 20 20" fill="none" xmlns="http://www.w3.org/2000/svg">
<path d="M20 2.4375V17.5625C20 18.7012 19.0402 19.625 17.8571 19.625H6.89286C7.33036 18.9203 7.89286 17.9062 8.11607 17.077C8.25 16.5828 8.79911 14.5676 8.79911 14.5676C9.15625 15.225 10.2009 15.7793 11.3125 15.7793C14.6205 15.7793 17 12.8531 17 9.21797C17 5.7332 14.0446 3.125 10.2411 3.125C5.50893 3.125 3 6.18008 3 9.51016C3 11.057 3.85714 12.982 5.22321 13.5965C5.43304 13.691 5.54018 13.648 5.58929 13.4547C5.625 13.3086 5.8125 12.591 5.89286 12.2602C5.91964 12.1527 5.90625 12.0625 5.81696 11.9594C5.36607 11.4309 5 10.4598 5 9.55313C5 7.22422 6.83036 4.97266 9.95089 4.97266C12.6429 4.97266 14.5312 6.73867 14.5312 9.26523C14.5312 12.1184 13.0357 14.0949 11.0848 14.0949C10.0089 14.0949 9.20536 13.2398 9.45982 12.1871C9.76786 10.9324 10.3661 9.57891 10.3661 8.67227C10.3661 6.39492 6.99554 6.70859 6.99554 9.74648C6.99554 10.6789 7.32143 11.3148 7.32143 11.3148C5.91964 17.0211 5.70982 17.0941 6 19.5906L6.09821 19.625H2.14286C0.959821 19.625 0 18.7012 0 17.5625V2.4375C0 1.29883 0.959821 0.375 2.14286 0.375H17.8571C19.0402 0.375 20 1.29883 20 2.4375Z" fill="#0161A5"/>
</svg>
