<svg width="14" height="17" viewBox="0 0 14 17" fill="none" xmlns="http://www.w3.org/2000/svg">
<path d="M4.625 9.5625H3.375C3.16875 9.5625 3 9.3832 3 9.16406V7.83594C3 7.6168 3.16875 7.4375 3.375 7.4375H4.625C4.83125 7.4375 5 7.6168 5 7.83594V9.16406C5 9.3832 4.83125 9.5625 4.625 9.5625ZM8 9.16406V7.83594C8 7.6168 7.83125 7.4375 7.625 7.4375H6.375C6.16875 7.4375 6 7.6168 6 7.83594V9.16406C6 9.3832 6.16875 9.5625 6.375 9.5625H7.625C7.83125 9.5625 8 9.3832 8 9.16406ZM11 9.16406V7.83594C11 7.6168 10.8313 7.4375 10.625 7.4375H9.375C9.16875 7.4375 9 7.6168 9 7.83594V9.16406C9 9.3832 9.16875 9.5625 9.375 9.5625H10.625C10.8313 9.5625 11 9.3832 11 9.16406ZM8 12.3516V11.0234C8 10.8043 7.83125 10.625 7.625 10.625H6.375C6.16875 10.625 6 10.8043 6 11.0234V12.3516C6 12.5707 6.16875 12.75 6.375 12.75H7.625C7.83125 12.75 8 12.5707 8 12.3516ZM5 12.3516V11.0234C5 10.8043 4.83125 10.625 4.625 10.625H3.375C3.16875 10.625 3 10.8043 3 11.0234V12.3516C3 12.5707 3.16875 12.75 3.375 12.75H4.625C4.83125 12.75 5 12.5707 5 12.3516ZM11 12.3516V11.0234C11 10.8043 10.8313 10.625 10.625 10.625H9.375C9.16875 10.625 9 10.8043 9 11.0234V12.3516C9 12.5707 9.16875 12.75 9.375 12.75H10.625C10.8313 12.75 11 12.5707 11 12.3516ZM14 3.71875V15.4062C14 16.2861 13.3281 17 12.5 17H1.5C0.671875 17 0 16.2861 0 15.4062V3.71875C0 2.83887 0.671875 2.125 1.5 2.125H3V0.398438C3 0.179297 3.16875 0 3.375 0H4.625C4.83125 0 5 0.179297 5 0.398438V2.125H9V0.398438C9 0.179297 9.16875 0 9.375 0H10.625C10.8313 0 11 0.179297 11 0.398438V2.125H12.5C13.3281 2.125 14 2.83887 14 3.71875ZM12.5 15.207V5.3125H1.5V15.207C1.5 15.3166 1.58438 15.4062 1.6875 15.4062H12.3125C12.4156 15.4062 12.5 15.3166 12.5 15.207Z" fill="#0161A5"/>
</svg>
