<svg width="18" height="16" viewBox="0 0 18 16" fill="none" xmlns="http://www.w3.org/2000/svg">
<path d="M12.5719 10.7782L13.5719 9.77816C13.7281 9.62191 14 9.73128 14 9.95628V14.5C14 15.3282 13.3281 16 12.5 16H1.5C0.671875 16 0 15.3282 0 14.5V3.50003C0 2.6719 0.671875 2.00003 1.5 2.00003H10.0469C10.2687 2.00003 10.3812 2.26878 10.225 2.42815L9.225 3.42815C9.17812 3.47503 9.11562 3.50003 9.04687 3.50003H1.5V14.5H12.5V10.9532C12.5 10.8875 12.525 10.825 12.5719 10.7782ZM17.4656 4.4719L9.25937 12.6782L6.43437 12.9907C5.61562 13.0813 4.91875 12.3907 5.00937 11.5657L5.32187 8.74066L13.5281 0.5344C14.2437 -0.181226 15.4 -0.181226 16.1125 0.5344L17.4625 1.8844C18.1781 2.60003 18.1781 3.7594 17.4656 4.4719ZM14.3781 5.43753L12.5625 3.6219L6.75625 9.43128L6.52812 11.4719L8.56875 11.2438L14.3781 5.43753ZM16.4031 2.9469L15.0531 1.5969C14.925 1.46878 14.7156 1.46878 14.5906 1.5969L13.625 2.56253L15.4406 4.37815L16.4062 3.41253C16.5312 3.28128 16.5312 3.07503 16.4031 2.9469Z" fill="white"/>
</svg>
