<svg width="14" height="14" viewBox="0 0 14 14" fill="none" xmlns="http://www.w3.org/2000/svg">
<path d="M7 0C8.00625 0 8.88125 0.566016 9.32148 1.39727C10.2211 1.09648 11.2137 1.33875 11.9492 2.05023C12.6602 2.76172 12.8543 3.77891 12.6027 4.67852C13.434 5.11875 14 5.99375 14 7C14 8.00625 13.434 8.88125 12.6027 9.32148C12.8789 10.2211 12.6602 11.2137 11.9492 11.9492C11.2137 12.6602 10.2211 12.8543 9.32148 12.6027C8.88125 13.434 8.00625 14 7 14C5.99375 14 5.11875 13.434 4.67852 12.6027C3.77891 12.8789 2.76172 12.6602 2.05023 11.9492C1.33875 11.2137 1.12109 10.2211 1.39727 9.32148C0.566016 8.88125 0 8.00625 0 7C0 5.99375 0.566016 5.11875 1.39727 4.67852C1.09648 3.77891 1.33875 2.76172 2.05023 2.05023C2.76172 1.33875 3.77891 1.12109 4.67852 1.39727C5.11875 0.566016 5.99375 0 7 0ZM9.62773 6.12773C9.90664 5.89531 9.90664 5.47969 9.62773 5.22266C9.39531 4.96836 8.97969 4.96836 8.72266 5.22266L6.125 7.82305L5.03398 6.75391C4.80156 6.49961 4.38594 6.49961 4.12891 6.75391C3.87461 7.01094 3.87461 7.42656 4.12891 7.65898L5.66016 9.19023C5.91719 9.46914 6.33281 9.46914 6.56523 9.19023L9.62773 6.12773Z" fill="#0161A5"/>
</svg>
