<svg width="24" height="24" viewBox="0 0 24 24" fill="none" xmlns="http://www.w3.org/2000/svg">
<path d="M20.9578 0.000244141H2.95781C1.30547 0.000244141 -0.0421906 1.3479 -0.0421906 2.95806V16.4159C-0.0421906 18.0682 1.30547 19.3737 2.95781 19.3737H7.45781V23.3103C7.45781 23.7673 7.98515 24.0345 8.35406 23.7649L14.2087 19.3737H20.9587C22.6111 19.3737 23.9587 18.026 23.9587 16.4159V2.95787C23.9578 1.34771 22.65 0.000244141 20.9578 0.000244141ZM11.2078 10.8751C11.2078 12.736 9.69374 14.2079 7.875 14.2079C7.25156 14.2079 6.75 13.7485 6.75 13.1251C6.75 12.5016 7.25625 12.0001 7.875 12.0001C8.49374 12.0001 9 11.4938 9 10.8751V10.4626C8.87812 10.4813 8.75156 10.5001 8.58281 10.5001C7.13296 10.5001 5.95781 9.3249 5.95781 7.91724C5.95781 6.50958 7.13296 5.33443 8.58281 5.33443C10.0327 5.33443 11.2078 6.42662 11.2078 7.87505V10.8751ZM17.9578 10.8751C17.9578 12.736 16.4437 14.2079 14.5828 14.2079C14.0016 14.2079 13.5 13.7485 13.5 13.1251C13.5 12.5016 14.0062 12.0001 14.625 12.0001C15.2452 12.0001 15.75 11.4952 15.75 10.8751V10.4626C15.6265 10.4804 15.503 10.5004 15.3745 10.5004C13.9247 10.5004 12.7495 9.32523 12.7495 7.91757C12.7495 6.50992 13.9247 5.33476 15.3745 5.33476C16.8244 5.33476 17.9995 6.50992 17.9995 7.91757L17.9578 10.8751Z" fill="#0161A5"/>
</svg>
