<svg width="25" height="24" viewBox="0 0 25 24" fill="none" xmlns="http://www.w3.org/2000/svg">
<path d="M21.75 0H3.85714C2.2123 0 0.875 1.34531 0.875 3V16.5C0.875 18.1547 2.2123 19.5 3.85714 19.5H8.33036V23.4375C8.33036 23.7703 8.60061 24 8.88951 24C9.00134 24 9.11783 23.9672 9.22034 23.8875L15.0402 19.5H21.75C23.3948 19.5 24.7321 18.1547 24.7321 16.5V3C24.7321 1.34531 23.3948 0 21.75 0ZM22.4955 16.5C22.4955 16.9125 22.16 17.25 21.75 17.25H14.2946L13.6982 17.7L10.567 20.0625V17.25H3.85714C3.4471 17.25 3.11161 16.9125 3.11161 16.5V3C3.11161 2.5875 3.4471 2.25 3.85714 2.25H21.75C22.16 2.25 22.4955 2.5875 22.4955 3V16.5ZM8.55868 11.4L8.33502 13.4062C8.30706 13.6734 8.53072 13.9031 8.80098 13.875L10.7953 13.65L14.7792 9.64219L12.5426 7.39219L8.55868 11.4ZM15.9814 5.12344C15.6552 4.79531 15.1241 4.79531 14.7979 5.12344L13.4792 6.45L15.7158 8.7L17.0345 7.37344C17.3607 7.04531 17.3607 6.51094 17.0345 6.18281L15.9814 5.12344Z" fill="#0161A5"/>
</svg>
