<svg width="15" height="17" viewBox="0 0 15 17" fill="none" xmlns="http://www.w3.org/2000/svg">
<path d="M4.5 10.0938C5.46094 10.0938 5.92299 10.625 7.5 10.625C9.07701 10.625 9.53571 10.0938 10.5 10.0938C12.9844 10.0938 15 12.0926 15 14.5562V15.4062C15 16.2861 14.2801 17 13.3929 17H1.60714C0.719867 17 0 16.2861 0 15.4062V14.5562C0 12.0926 2.01562 10.0938 4.5 10.0938ZM1.60714 15.4062H13.3929V14.5562C13.3929 12.9758 12.0938 11.6875 10.5 11.6875C10.0112 11.6875 9.21763 12.2188 7.5 12.2188C5.76897 12.2188 4.99219 11.6875 4.5 11.6875C2.90625 11.6875 1.60714 12.9758 1.60714 14.5562V15.4062ZM7.5 9.5625C4.83817 9.5625 2.67857 7.4209 2.67857 4.78125C2.67857 2.1416 4.83817 0 7.5 0C10.1618 0 12.3214 2.1416 12.3214 4.78125C12.3214 7.4209 10.1618 9.5625 7.5 9.5625ZM7.5 1.59375C5.7288 1.59375 4.28572 3.0248 4.28572 4.78125C4.28572 6.5377 5.7288 7.96875 7.5 7.96875C9.27121 7.96875 10.7143 6.5377 10.7143 4.78125C10.7143 3.0248 9.27121 1.59375 7.5 1.59375Z" fill="#0161A5"/>
</svg>
