<svg width="20" height="27" viewBox="0 0 20 27" fill="none" xmlns="http://www.w3.org/2000/svg">
<path d="M13.3333 0V6.75H20L13.3333 0ZM11.6667 6.75V0H2.5C1.11927 0 0 1.13326 0 2.53125V24.4688C0 25.8662 1.11927 27 2.5 27H17.5C18.8807 27 20 25.8667 20 24.4688V8.4375H13.3802C12.4115 8.4375 11.6667 7.6834 11.6667 6.75ZM3.33333 3.79688C3.33333 3.56643 3.5224 3.375 3.75 3.375H7.91667C8.14583 3.375 8.33333 3.56643 8.33333 3.79688V4.64062C8.33333 4.8716 8.14583 5.0625 7.91667 5.0625H3.75C3.5224 5.0625 3.33333 4.8716 3.33333 4.64062V3.79688ZM3.33333 7.17188C3.33333 6.93984 3.5224 6.75 3.75 6.75H7.91667C8.14583 6.75 8.33333 6.93984 8.33333 7.17188V8.01562C8.33333 8.24766 8.14583 8.4375 7.91667 8.4375H3.75C3.5224 8.4375 3.33333 8.24766 3.33333 8.01562V7.17188ZM15.8333 20.25C16.2956 20.25 16.6667 20.6257 16.6667 21.0938C16.6667 21.5618 16.2969 21.9375 15.8333 21.9375H13.3724C12.5193 21.9375 11.7448 21.4563 11.3604 20.6782C11.2107 20.3684 10.9437 20.3354 10.8333 20.3354C10.7229 20.3354 10.4557 20.3684 10.3125 20.6584L9.90885 21.4695C9.77083 21.7582 9.43229 21.9375 9.16667 21.9375H9.10937C8.77083 21.9111 8.48437 21.687 8.38021 21.3574L7.5 18.6996L6.94792 20.3818C6.64062 21.31 5.78125 21.9375 4.81146 21.9375H4.16667C3.70469 21.9375 3.33333 21.5631 3.33333 21.0938C3.33333 20.6244 3.70469 20.25 4.16667 20.25H4.81146C5.06536 20.25 5.28672 20.0852 5.36458 19.8479L6.3151 16.967C6.48438 16.4479 6.95833 16.0998 7.5 16.0998C8.04167 16.0998 8.51562 16.4492 8.6849 16.9699L9.40781 19.1653C10.4365 18.3083 12.2271 18.6511 12.8453 19.9099C12.9495 20.1208 13.1578 20.2526 13.3724 20.2526H15.8333V20.25Z" fill="#0161A5"/>
</svg>
