<svg width="28" height="18" viewBox="0 0 28 18" fill="none" xmlns="http://www.w3.org/2000/svg">
<path d="M26.7195 2.81639C26.4142 1.7078 25.5146 0.834703 24.3724 0.538406C22.302 0 14.0002 0 14.0002 0C14.0002 0 5.69836 0 3.62796 0.538406C2.48575 0.83475 1.58615 1.7078 1.28082 2.81639C0.726074 4.82578 0.726074 9.01819 0.726074 9.01819C0.726074 9.01819 0.726074 13.2106 1.28082 15.22C1.58615 16.3286 2.48575 17.1653 3.62796 17.4616C5.69836 18 14.0002 18 14.0002 18C14.0002 18 22.302 18 24.3724 17.4616C25.5146 17.1653 26.4142 16.3286 26.7195 15.22C27.2743 13.2106 27.2743 9.01819 27.2743 9.01819C27.2743 9.01819 27.2743 4.82578 26.7195 2.81639ZM11.285 12.8246V5.2118L18.2237 9.01828L11.285 12.8246Z" fill="#0161A5"/>
</svg>
