<svg width="16" height="10" viewBox="0 0 16 10" fill="none" xmlns="http://www.w3.org/2000/svg">
<path d="M3.11483 0.119816L0.109839 3.38008C-0.0366291 3.53896 -0.0365978 3.7966 0.109839 3.95544L3.11474 7.21561C3.35024 7.47111 3.75486 7.29013 3.7549 6.92793L3.75496 4.61692L14.25 4.61692L14.25 8.00738C14.25 8.06081 14.2597 8.11372 14.2785 8.16308C14.2974 8.21244 14.325 8.25729 14.3598 8.29506L15.3598 9.38001C15.5961 9.63633 16 9.4548 16 9.09233L16 3.53197C16 3.08257 15.6642 2.71826 15.25 2.71826L3.75499 2.71826L3.75502 0.407531C3.75502 0.0472601 3.35171 -0.137181 3.11483 0.119816Z" fill="black"/>
</svg>
