<svg width="12" height="12" viewBox="0 0 12 12" fill="none" xmlns="http://www.w3.org/2000/svg">
<path d="M11.625 1.6875H6.75V1.125C6.75 0.91875 6.58125 0.75 6.375 0.75H5.625C5.41875 0.75 5.25 0.91875 5.25 1.125V1.6875H0.375C0.16875 1.6875 0 1.85625 0 2.0625V2.4375C0 2.64375 0.16875 2.8125 0.375 2.8125H5.25V3.375C5.25 3.58125 5.41875 3.75 5.625 3.75H6.375C6.58125 3.75 6.75 3.58125 6.75 3.375V2.8125H11.625C11.8313 2.8125 12 2.64375 12 2.4375V2.0625C12 1.85625 11.8313 1.6875 11.625 1.6875ZM11.625 9.1875H3.75V8.625C3.75 8.41875 3.58125 8.25 3.375 8.25H2.625C2.41875 8.25 2.25 8.41875 2.25 8.625V9.1875H0.375C0.16875 9.1875 0 9.35625 0 9.5625V9.9375C0 10.1438 0.16875 10.3125 0.375 10.3125H2.25V10.875C2.25 11.0813 2.41875 11.25 2.625 11.25H3.375C3.58125 11.25 3.75 11.0813 3.75 10.875V10.3125H11.625C11.8313 10.3125 12 10.1438 12 9.9375V9.5625C12 9.35625 11.8313 9.1875 11.625 9.1875ZM11.625 5.4375H9.75V4.875C9.75 4.66875 9.58125 4.5 9.375 4.5H8.625C8.41875 4.5 8.25 4.66875 8.25 4.875V5.4375H0.375C0.16875 5.4375 0 5.60625 0 5.8125V6.1875C0 6.39375 0.16875 6.5625 0.375 6.5625H8.25V7.125C8.25 7.33125 8.41875 7.5 8.625 7.5H9.375C9.58125 7.5 9.75 7.33125 9.75 7.125V6.5625H11.625C11.8313 6.5625 12 6.39375 12 6.1875V5.8125C12 5.60625 11.8313 5.4375 11.625 5.4375Z" fill="#1B1B1B"/>
</svg>
