<svg width="20" height="18" viewBox="0 0 20 18" fill="none" xmlns="http://www.w3.org/2000/svg">
<path d="M14.1667 1.1875V4.3125C14.1667 4.83027 14.5864 5.25 15.1042 5.25H19.0625C19.5803 5.25 20 4.83027 20 4.3125V1.1875C20 0.669727 19.5803 0.25 19.0625 0.25H15.1042C14.5864 0.25 14.1667 0.669727 14.1667 1.1875ZM7.08332 10.5625V7.4375C7.08332 6.91973 7.50305 6.5 8.02082 6.5H11.9792C12.497 6.5 12.9167 6.91973 12.9167 7.4375V10.5625C12.9167 11.0803 12.497 11.5 11.9792 11.5H8.02086C7.50305 11.5 7.08332 11.0803 7.08332 10.5625V10.5625ZM5.83332 1.1875V4.3125C5.83332 4.83027 5.41359 5.25 4.89582 5.25H0.9375C0.419727 5.25 0 4.83027 0 4.3125V1.1875C0 0.669727 0.419727 0.25 0.9375 0.25H4.89582C5.41359 0.25 5.83332 0.669727 5.83332 1.1875V1.1875ZM7.08332 4.3125V1.1875C7.08332 0.669727 7.50305 0.25 8.02082 0.25H11.9792C12.497 0.25 12.9167 0.669727 12.9167 1.1875V4.3125C12.9167 4.83027 12.497 5.25 11.9792 5.25H8.02086C7.50305 5.25 7.08332 4.83027 7.08332 4.3125V4.3125ZM15.1042 6.5H19.0625C19.5803 6.5 20 6.91973 20 7.4375V10.5625C20 11.0803 19.5803 11.5 19.0625 11.5H15.1042C14.5864 11.5 14.1667 11.0803 14.1667 10.5625V7.4375C14.1667 6.91973 14.5864 6.5 15.1042 6.5V6.5ZM20 13.6875V16.8125C20 17.3303 19.5803 17.75 19.0625 17.75H15.1042C14.5864 17.75 14.1667 17.3303 14.1667 16.8125V13.6875C14.1667 13.1697 14.5864 12.75 15.1042 12.75H19.0625C19.5803 12.75 20 13.1697 20 13.6875ZM4.89582 11.5H0.9375C0.419727 11.5 0 11.0803 0 10.5625V7.4375C0 6.91973 0.419727 6.5 0.9375 6.5H4.89582C5.41359 6.5 5.83332 6.91973 5.83332 7.4375V10.5625C5.83332 11.0803 5.41359 11.5 4.89582 11.5ZM4.89582 17.75H0.9375C0.419727 17.75 0 17.3303 0 16.8125V13.6875C0 13.1697 0.419727 12.75 0.9375 12.75H4.89582C5.41359 12.75 5.83332 13.1697 5.83332 13.6875V16.8125C5.83332 17.3303 5.41359 17.75 4.89582 17.75ZM12.9167 13.6875V16.8125C12.9167 17.3303 12.497 17.75 11.9792 17.75H8.02086C7.50309 17.75 7.08336 17.3303 7.08336 16.8125V13.6875C7.08336 13.1697 7.50309 12.75 8.02086 12.75H11.9792C12.497 12.75 12.9167 13.1697 12.9167 13.6875Z" fill="#0161A5"/>
</svg>
