<svg width="22" height="18" viewBox="0 0 22 18" fill="none" xmlns="http://www.w3.org/2000/svg">
<path d="M3.4375 0.0625H0.6875C0.505164 0.0625 0.330295 0.134933 0.201364 0.263864C0.0724328 0.392795 0 0.567664 0 0.75L0 3.5C0 3.68234 0.0724328 3.8572 0.201364 3.98614C0.330295 4.11507 0.505164 4.1875 0.6875 4.1875H3.4375C3.61984 4.1875 3.7947 4.11507 3.92364 3.98614C4.05257 3.8572 4.125 3.68234 4.125 3.5V0.75C4.125 0.567664 4.05257 0.392795 3.92364 0.263864C3.7947 0.134933 3.61984 0.0625 3.4375 0.0625ZM3.4375 6.9375H0.6875C0.505164 6.9375 0.330295 7.00993 0.201364 7.13886C0.0724328 7.2678 0 7.44266 0 7.625L0 10.375C0 10.5573 0.0724328 10.7322 0.201364 10.8611C0.330295 10.9901 0.505164 11.0625 0.6875 11.0625H3.4375C3.61984 11.0625 3.7947 10.9901 3.92364 10.8611C4.05257 10.7322 4.125 10.5573 4.125 10.375V7.625C4.125 7.44266 4.05257 7.2678 3.92364 7.13886C3.7947 7.00993 3.61984 6.9375 3.4375 6.9375ZM3.4375 13.8125H0.6875C0.505164 13.8125 0.330295 13.8849 0.201364 14.0139C0.0724328 14.1428 0 14.3177 0 14.5L0 17.25C0 17.4323 0.0724328 17.6072 0.201364 17.7361C0.330295 17.8651 0.505164 17.9375 0.6875 17.9375H3.4375C3.61984 17.9375 3.7947 17.8651 3.92364 17.7361C4.05257 17.6072 4.125 17.4323 4.125 17.25V14.5C4.125 14.3177 4.05257 14.1428 3.92364 14.0139C3.7947 13.8849 3.61984 13.8125 3.4375 13.8125ZM21.3125 7.96875H7.5625C7.38016 7.96875 7.2053 8.04118 7.07636 8.17011C6.94743 8.29905 6.875 8.47391 6.875 8.65625V9.34375C6.875 9.52609 6.94743 9.70096 7.07636 9.82989C7.2053 9.95882 7.38016 10.0312 7.5625 10.0312H21.3125C21.4948 10.0312 21.6697 9.95882 21.7986 9.82989C21.9276 9.70096 22 9.52609 22 9.34375V8.65625C22 8.47391 21.9276 8.29905 21.7986 8.17011C21.6697 8.04118 21.4948 7.96875 21.3125 7.96875ZM21.3125 14.8438H7.5625C7.38016 14.8438 7.2053 14.9162 7.07636 15.0451C6.94743 15.174 6.875 15.3489 6.875 15.5312V16.2188C6.875 16.4011 6.94743 16.576 7.07636 16.7049C7.2053 16.8338 7.38016 16.9062 7.5625 16.9062H21.3125C21.4948 16.9062 21.6697 16.8338 21.7986 16.7049C21.9276 16.576 22 16.4011 22 16.2188V15.5312C22 15.3489 21.9276 15.174 21.7986 15.0451C21.6697 14.9162 21.4948 14.8438 21.3125 14.8438ZM21.3125 1.09375H7.5625C7.38016 1.09375 7.2053 1.16618 7.07636 1.29511C6.94743 1.42405 6.875 1.59891 6.875 1.78125V2.46875C6.875 2.65109 6.94743 2.82595 7.07636 2.95489C7.2053 3.08382 7.38016 3.15625 7.5625 3.15625H21.3125C21.4948 3.15625 21.6697 3.08382 21.7986 2.95489C21.9276 2.82595 22 2.65109 22 2.46875V1.78125C22 1.59891 21.9276 1.42405 21.7986 1.29511C21.6697 1.16618 21.4948 1.09375 21.3125 1.09375Z" fill="#9D9D9D"/>
</svg>
