<svg width="14" height="14" viewBox="0 0 14 14" fill="none" xmlns="http://www.w3.org/2000/svg">
<path d="M13.7812 6.99939C13.7812 10.7446 10.7452 13.7806 7 13.7806C3.25481 13.7806 0.21875 10.7446 0.21875 6.99939C0.21875 3.2542 3.25481 0.21814 7 0.21814C10.7452 0.21814 13.7812 3.2542 13.7812 6.99939ZM6.21562 10.59L11.2469 5.55876C11.4177 5.38791 11.4177 5.11089 11.2469 4.94005L10.6282 4.32134C10.4573 4.15047 10.1803 4.15047 10.0094 4.32134L5.90625 8.42449L3.99057 6.50882C3.81973 6.33797 3.54271 6.33797 3.37184 6.50882L2.75313 7.12752C2.58229 7.29837 2.58229 7.57539 2.75313 7.74623L5.59688 10.59C5.76775 10.7608 6.04475 10.7609 6.21562 10.59Z" fill="#2DA774"/>
</svg>
