<svg width="14" height="13" viewBox="0 0 14 13" fill="none" xmlns="http://www.w3.org/2000/svg">
<path d="M12.3999 4.11843L8.96944 3.60694L7.43618 0.427507C7.16147 -0.13922 6.36549 -0.146424 6.08842 0.427507L4.55516 3.60694L1.12471 4.11843C0.509526 4.20969 0.262984 4.98533 0.709108 5.42959L3.19096 7.90302L2.60396 11.397C2.4983 12.0286 3.1487 12.5017 3.69344 12.2063L6.7623 10.5565L9.83116 12.2063C10.3759 12.4993 11.0263 12.0286 10.9206 11.397L10.3336 7.90302L12.8155 5.42959C13.2616 4.98533 13.0151 4.20969 12.3999 4.11843ZM9.52827 7.63406L10.181 11.5243L6.7623 9.68965L3.34593 11.5267L3.99868 7.63646L1.23272 4.87727L5.05294 4.31055L6.7623 0.768503L8.47166 4.31055L12.2919 4.87727L9.52827 7.63406Z" fill="#FFCC02"/>
</svg>
