<svg width="14" height="14" viewBox="0 0 14 14" fill="none" xmlns="http://www.w3.org/2000/svg">
<path d="M1.35898 1.71439C2.84922 0.445643 5.07773 0.65619 6.46133 2.08353L7 2.64135L7.53867 2.08627C8.6543 0.932362 10.9047 0.23783 12.641 1.71439C14.3582 3.18002 14.4484 5.81049 12.9117 7.39643L7.6207 12.8597C7.45117 13.0347 7.22695 13.1249 7.00273 13.1249C6.77852 13.1249 6.5543 13.0374 6.38477 12.8597L1.09375 7.39643C-0.448438 5.81049 -0.358203 3.18002 1.35898 1.71439ZM1.71719 6.78939L6.98906 12.2527L12.2828 6.78939C13.3328 5.70658 13.5516 3.64213 12.0723 2.38158C10.5738 1.10189 8.81289 2.02885 8.16758 2.69603L7 3.90189L5.83242 2.69603C5.19805 2.03978 3.4207 1.1101 1.92773 2.38158C0.451172 3.63939 0.667188 5.70385 1.71719 6.78939Z" fill="#1B1B1B"/>
</svg>
