<svg width="16" height="12" viewBox="0 0 16 12" fill="none" xmlns="http://www.w3.org/2000/svg">
<path d="M14.5 0H1.5C0.671875 0 0 0.671875 0 1.5V10.5C0 11.3281 0.671875 12 1.5 12H14.5C15.3281 12 16 11.3281 16 10.5V1.5C16 0.671875 15.3281 0 14.5 0ZM1.5 1H14.5C14.775 1 15 1.225 15 1.5V2.79375C14.3156 3.37187 13.3375 4.16875 10.2937 6.58438C9.76562 7.00313 8.725 8.0125 8 8C7.275 8.0125 6.23125 7.00313 5.70625 6.58438C2.6625 4.16875 1.68438 3.37187 1 2.79375V1.5C1 1.225 1.225 1 1.5 1ZM14.5 11H1.5C1.225 11 1 10.775 1 10.5V4.09375C1.7125 4.67812 2.8375 5.58125 5.08437 7.36563C5.725 7.87813 6.85625 9.00625 8 9C9.1375 9.00937 10.2594 7.89063 10.9156 7.36563C13.1625 5.58125 14.2875 4.67812 15 4.09375V10.5C15 10.775 14.775 11 14.5 11Z" fill="#1B1B1B"/>
</svg>
