<svg width="11" height="11" viewBox="0 0 11 11" fill="none" xmlns="http://www.w3.org/2000/svg">
<path d="M10.8281 5.5C10.8281 8.44265 8.44265 10.8281 5.5 10.8281C2.55735 10.8281 0.171875 8.44265 0.171875 5.5C0.171875 2.55735 2.55735 0.171875 5.5 0.171875C8.44265 0.171875 10.8281 2.55735 10.8281 5.5ZM4.8837 8.3212L8.83682 4.36807C8.97106 4.23384 8.97106 4.01618 8.83682 3.88195L8.3507 3.39582C8.21646 3.26156 7.9988 3.26156 7.86455 3.39582L4.64062 6.61972L3.13545 5.11455C3.00122 4.98031 2.78356 4.98031 2.6493 5.11455L2.16318 5.60068C2.02894 5.73491 2.02894 5.95257 2.16318 6.0868L4.39755 8.32118C4.53181 8.45543 4.74944 8.45543 4.8837 8.3212Z" fill="#2DA774"/>
</svg>
