<svg width="16" height="15" viewBox="0 0 16 15" fill="none" xmlns="http://www.w3.org/2000/svg">
<path d="M14.6504 4.94217L10.5338 4.32838L8.69393 0.513057C8.36427 -0.167015 7.40909 -0.17566 7.07661 0.513057L5.2367 4.32838L1.12016 4.94217C0.381939 5.05167 0.0860884 5.98245 0.621437 6.51556L3.59966 9.48367L2.89526 13.6765C2.76847 14.4344 3.54895 15.002 4.20264 14.6476L7.88527 12.6679L11.5679 14.6476C12.2216 14.9992 13.0021 14.4344 12.8753 13.6765L12.1709 9.48367L15.1491 6.51556C15.6844 5.98245 15.3886 5.05167 14.6504 4.94217ZM11.2044 9.16092L11.9877 13.8292L7.88527 11.6276L3.78563 13.8321L4.56893 9.1638L1.24977 5.85278L5.83404 5.1727L7.88527 0.922253L9.9365 5.1727L14.5208 5.85278L11.2044 9.16092Z" fill="#FFCC02"/>
</svg>
