<svg width="14" height="14" viewBox="0 0 14 14" fill="none" xmlns="http://www.w3.org/2000/svg">
<path d="M13.8718 0.746933L13.2533 0.128418C13.0824 -0.0424805 12.8054 -0.0424805 12.6345 0.128418L10.6633 2.09963C9.64067 1.334 8.37575 0.875176 7.00008 0.875176C3.61739 0.875176 0.875084 3.61748 0.875084 7.00017C0.875084 8.37557 1.33391 9.64076 2.09954 10.6631L0.128326 12.6346C-0.042572 12.8055 -0.042572 13.0825 0.128326 13.2534L0.747115 13.8722C0.918014 14.0431 1.19501 14.0431 1.3659 13.8722L3.33711 11.901C4.3595 12.6663 5.62469 13.1252 7.00008 13.1252C10.3828 13.1252 13.1251 10.3829 13.1251 7.00017C13.1251 5.62478 12.6663 4.35959 11.9006 3.33721L13.8718 1.366C14.0427 1.19482 14.0427 0.917832 13.8718 0.746933ZM3.06258 7.00017C3.06258 4.82908 4.82899 3.06268 7.00008 3.06268C7.76871 3.06268 8.48102 3.29264 9.08778 3.6749L3.67481 9.08787C3.29254 8.48111 3.06258 7.76881 3.06258 7.00017ZM10.9376 7.00017C10.9376 9.17127 9.17118 10.9377 7.00008 10.9377C6.23145 10.9377 5.51915 10.7077 4.91239 10.3254L10.3251 4.91248C10.7076 5.51924 10.9376 6.23154 10.9376 7.00017Z" fill="#D13F3F"/>
</svg>
